# xmcd
#
# Track frame offsets:
#	150
#	17742
#	39849
#	56363
#	76491
#	96401
#	114873
#	132483
#	151665
#	170269
#
# Disc length: 2563 seconds
#
# Revision: 1
# Processed by: cddbd v1.4PL0 Copyright (c) Steve Scherf et al.
# Submitted via: audiograbber 1.82.01
#
DISCID=6d0a010a
DTITLE=Steffi, Günther, Georg - Filtered Noise
DYEAR=2003
DGENRE=Blues
TTITLE0=Blacknail
TTITLE1=Cafe au Lait
TTITLE2=Summer, Sunshine
TTITLE3=Light
TTITLE4=Angel
TTITLE5=Dark Drop
TTITLE6=Below
TTITLE7=Melon Tropic
TTITLE8=Plane's Life
TTITLE9=Airport
EXTD=
EXTT0=
EXTT1=
EXTT2=
EXTT3=
EXTT4=
EXTT5=
EXTT6=
EXTT7=
EXTT8=
EXTT9=
PLAYORDER=
